<svg xmlns="http://www.w3.org/2000/svg" style="display: none;">
  <defs>
    <symbol id="icon-terminal" viewBox="0 0 24 24" fill="none" stroke="currentColor" stroke-width="2" stroke-linecap="round" stroke-linejoin="round">
      <polyline points="4 17 10 11 4 5"></polyline>
      <line x1="12" y1="19" x2="20" y2="19"></line>
    </symbol>
    <symbol id="icon-shield" viewBox="0 0 24 24" fill="none" stroke="currentColor" stroke-width="2" stroke-linecap="round" stroke-linejoin="round">
      <path d="M12 22s8-4 8-10V5l-8-3-8 3v7c0 6 8 10 8 10z"></path>
    </symbol>
    <symbol id="icon-trophy" viewBox="0 0 24 24" fill="none" stroke="currentColor" stroke-width="2" stroke-linecap="round" stroke-linejoin="round">
      <path d="M6 9H4.5a2.5 2.5 0 0 1 0-5H6"></path>
      <path d="M18 9h1.5a2.5 2.5 0 0 0 0-5H18"></path>
      <path d="M4 22h16"></path>
      <path d="M10 14.66V17c0 .55-.45 1-1 1H7c-.55 0-1 .45-1 1v1c0 .55.45 1 1 1h10c.55 0 1-.45 1-1v-1c0-.55-.45-1-1-1h-2c-.55 0-1-.45-1-1v-2.34"></path>
      <path d="M18 4H6v7a6 6 0 0 0 12 0V4z"></path>
    </symbol>
    <symbol id="icon-vault" viewBox="0 0 24 24" fill="none" stroke="currentColor" stroke-width="2" stroke-linecap="round" stroke-linejoin="round">
      <rect x="2" y="2" width="20" height="20" rx="2"></rect>
      <circle cx="12" cy="12" r="5"></circle>
      <line x1="12" y1="7" x2="12" y2="9"></line>
      <line x1="12" y1="15" x2="12" y2="17"></line>
      <line x1="7" y1="12" x2="9" y2="12"></line>
      <line x1="15" y1="12" x2="17" y2="12"></line>
    </symbol>
    <symbol id="icon-mask" viewBox="0 0 24 24" fill="none" stroke="currentColor" stroke-width="2" stroke-linecap="round" stroke-linejoin="round">
      <path d="M2 10s3-4 10-4 10 4 10 4-2 8-10 8-10-8-10-8z"></path>
      <circle cx="9" cy="10" r="2"></circle>
      <circle cx="15" cy="10" r="2"></circle>
    </symbol>
  </defs>
</svg>
